<svg width="25" height="30" viewBox="0 0 25 30" fill="none" xmlns="http://www.w3.org/2000/svg">
<path d="M12.3114 1C14.0279 1.00009 15.4902 1.60595 16.7059 2.82227V2.82324C17.9219 4.04086 18.5282 5.50576 18.5282 7.22559C18.5281 8.94585 17.9223 10.41 16.7069 11.627V11.6279C15.4914 12.845 14.0285 13.4511 12.3114 13.4512C10.5948 13.4512 9.13184 12.8447 7.91589 11.6279C6.70006 10.4109 6.0937 8.94596 6.09363 7.22559C6.09363 5.50556 6.70014 4.0404 7.91589 2.82324C9.1315 1.60632 10.594 1 12.3114 1Z" stroke="#C1492E" stroke-width="2"/>
<path d="M18.4092 15.491C19.0746 15.4911 19.6761 15.6033 20.2041 15.8123V15.8133C20.7553 16.032 21.2127 16.3236 21.5762 16.6717H21.5771C21.9449 17.0238 22.2838 17.4631 22.5791 17.9832C22.8717 18.4985 23.1065 19.0335 23.2783 19.5711C23.4077 19.9756 23.5224 20.4134 23.6201 20.8768L23.7119 21.3494C23.8271 21.9932 23.9038 22.5946 23.9414 23.1375V23.1385C23.9797 23.6853 23.9998 24.2581 24 24.8407L23.9951 25.0877C23.9465 26.3029 23.5362 27.2148 22.832 27.8856C22.0798 28.6021 21.0605 28.9998 19.7139 28.9998H5.28613C3.9396 28.9998 2.91996 28.6018 2.16797 27.8856C1.41661 27.1691 1.00003 26.1795 1 24.8407C1 24.261 1.01952 23.6884 1.05762 23.1385V23.1375C1.09522 22.5933 1.17201 21.9919 1.28711 21.3494C1.40183 20.7095 1.5484 20.1116 1.7207 19.5721C1.89279 19.0339 2.12834 18.4988 2.4209 17.9832C2.71545 17.464 3.05388 17.0245 3.42188 16.6717C3.78577 16.3231 4.24345 16.0315 4.79395 15.8133C5.32196 15.6039 5.924 15.491 6.58984 15.491C6.5949 15.4911 6.59889 15.4913 6.60645 15.493C6.61631 15.4952 6.64062 15.5022 6.68555 15.5213C6.73604 15.5428 6.80071 15.5749 6.88672 15.6239L7.21582 15.827C7.57569 16.0617 7.98979 16.3289 8.44629 16.6209H8.44727C8.9368 16.9335 9.55566 17.1995 10.2578 17.4266C10.9935 17.6646 11.7473 17.7879 12.499 17.7879C13.2509 17.7879 14.0058 17.6648 14.7412 17.4266L14.7402 17.4256C15.4432 17.1983 16.062 16.9333 16.5518 16.6209L16.5527 16.6199L17.7822 15.827C18.0535 15.6502 18.2114 15.5643 18.3125 15.5213C18.3581 15.502 18.383 15.4951 18.3926 15.493C18.4002 15.4913 18.404 15.491 18.4092 15.491Z" stroke="#C1492E" stroke-width="2"/>
</svg>
