<svg width="11" height="10" viewBox="0 0 11 10" fill="none" xmlns="http://www.w3.org/2000/svg">
<path d="M10.607 8.31319C10.387 8.90636 9.51377 9.39832 8.81728 9.54199C8.3408 9.63885 7.7184 9.71613 5.62323 8.88677C2.94327 7.82667 1.21744 5.22649 1.08292 5.05779C0.954113 4.88908 0 3.68096 0 2.43148C0 1.182 0.664574 0.573586 0.932455 0.31237C1.15246 0.097956 1.51609 0 1.86491 0C1.97776 0 2.07921 0.00544206 2.17041 0.00979565C2.43829 0.0206796 2.5728 0.0359175 2.74949 0.439713C2.96949 0.945818 3.50525 2.1953 3.56909 2.32373C3.63407 2.45216 3.69904 2.62631 3.60785 2.79501C3.52235 2.96915 3.44712 3.04643 3.31261 3.19445C3.1781 3.34247 3.05043 3.45566 2.91592 3.61457C2.7928 3.7528 2.65373 3.90082 2.80876 4.15659C2.96379 4.40692 3.49956 5.24173 4.28838 5.91218C5.30633 6.77746 6.13163 7.05391 6.42687 7.17146C6.64687 7.25853 6.90906 7.23785 7.06979 7.07459C7.27383 6.86453 7.52575 6.51624 7.78224 6.1734C7.96462 5.92742 8.19489 5.89694 8.43655 5.98401C8.68277 6.06564 9.9857 6.68059 10.2536 6.80793C10.5215 6.93636 10.6982 6.99731 10.7631 7.10506C10.827 7.21282 10.827 7.71892 10.607 8.31319Z" fill="#FAFAFA"/>
</svg>
