<svg width="109" height="51" viewBox="0 0 109 51" fill="none" xmlns="http://www.w3.org/2000/svg">
<g clip-path="url(#clip0_6002_126)">
<path d="M99.906 21.904V23.5275L108.999 21.605V18.0568L99.906 21.904Z" fill="white"/>
<path d="M99.906 27.6001L108.999 28.3013V25.2774L99.906 25.9765V27.6001Z" fill="white"/>
<path d="M99.906 31.6747L108.999 35.5219V31.9737L99.906 30.0491V31.6747Z" fill="white"/>
<path d="M4.25151 15.3383L3.62821 24.3235H2.83434V15.3383H0V35.1787H2.83434V25.7702H3.34393L4.25151 35.1787H7.36802L5.61183 25.1174L7.36802 15.3383H4.25151Z" fill="white"/>
<path d="M14.0023 18.0315C13.9068 18.8443 13.8071 19.6375 13.7032 20.411C13.5994 21.1845 13.4955 21.9784 13.3916 22.7926C13.2891 23.6054 13.1712 24.5032 13.0378 25.4859C12.8399 26.9782 12.6721 28.1841 12.5345 29.1036L10.374 15.3383H7.65341L10.1803 31.4094H13.2273L11.9913 31.7084C11.9248 31.9533 11.8039 32.1801 11.6375 32.3717C11.4643 32.5264 11.2378 32.608 11.0058 32.5991C10.7952 32.5991 10.5846 32.5991 10.3972 32.5717C10.211 32.5545 10.026 32.5257 9.84339 32.4854C9.65387 32.4665 9.46436 32.4391 9.27694 32.4012V34.8944L9.9571 35.065C10.0683 35.0935 10.1817 35.1125 10.2961 35.1218L10.8499 35.1787C11.0479 35.1976 11.2564 35.2102 11.4817 35.2208C11.707 35.2313 11.8818 35.2355 12.0334 35.2355C12.7142 35.2355 13.2386 35.0839 13.6064 34.7807C13.9749 34.4796 14.2739 33.9552 14.4992 33.2077C14.7749 32.2236 14.9741 31.2197 15.0951 30.2049C15.265 28.9414 15.4917 27.3684 15.7753 25.4859C15.889 24.7489 16.0027 23.9459 16.1164 23.0769C16.2301 22.2079 16.3481 21.3193 16.4702 20.411C16.5923 19.5056 16.7102 18.6176 16.824 17.7473C16.9377 16.8769 17.0416 16.0739 17.1356 15.3383H14.3139C14.2002 16.3224 14.0963 17.2201 14.0023 18.0315Z" fill="white"/>
<path d="M22.5311 15.3383H20.8023H19.6968H17.968V35.1787H20.8023V18.5601L19.6168 18.259H19.6968H21.8552H22.5311V35.1787H25.3655V15.3383H25.0833H22.5311Z" fill="white"/>
<path d="M31.6027 15.3383L29.8465 29.4531H29.6465L29.9034 15.3383H27.069V35.1787H29.9034V35.1513L31.7164 21.007H31.9144L31.6322 35.1787H34.4665V15.3383H31.6322H31.6027Z" fill="white"/>
<path d="M39.9702 35.2818L43.8806 36.3874V17.3072L42.5392 17.0776L44.7629 16.9429C45.7463 16.886 46.7339 16.8376 47.711 16.8039C48.1321 15.518 48.549 14.2271 48.9618 12.9314L39.9702 15.4372V35.2818Z" fill="white"/>
<path d="M58.3057 11.2531C57.3792 10.4824 55.623 10.5814 54.5912 10.9225C53.2435 11.3689 51.8221 12.087 50.8366 13.2052C49.9137 14.2911 49.4261 15.6805 49.4679 17.105V33.1445C49.4452 34.0537 49.5638 34.9608 49.8195 35.8336C50.0291 36.5072 50.3826 37.1273 50.8556 37.6508C51.3222 38.1528 51.8795 38.5622 52.498 38.8574C53.1841 39.1864 53.8971 39.4562 54.6291 39.6639C55.2975 39.8656 55.9859 39.9934 56.6822 40.0451C57.2428 40.0919 57.8024 39.9431 58.2657 39.6239C58.7079 39.3123 59.0553 38.7816 59.3017 38.0383C59.5481 37.2949 59.6744 36.2484 59.6744 34.9239C59.659 28.3652 59.6457 21.805 59.6344 15.2435C59.666 13.8621 59.426 12.1881 58.3057 11.2531ZM55.8799 33.3235C55.8948 34.0416 55.8298 34.7592 55.6862 35.4629C55.5556 36.0104 55.1892 36.2147 54.5912 36.0947C54.3208 36.0518 54.0696 35.9285 53.8705 35.7406C53.6714 35.5528 53.5336 35.3092 53.4751 35.0418C53.3212 34.3508 53.2505 33.6438 53.2645 32.936V17.3724C53.2589 16.7642 53.3383 16.1582 53.5004 15.572C53.5627 15.3132 53.6997 15.0784 53.8944 14.8969C54.0891 14.7153 54.3329 14.5949 54.5954 14.5507C54.7088 14.5167 54.8279 14.506 54.9456 14.5194C55.0632 14.5328 55.1769 14.57 55.2797 14.6287C55.4594 14.7539 55.5956 14.932 55.6693 15.1382C55.77 15.4035 55.8297 15.6826 55.8462 15.9658C55.8715 16.2901 55.8841 16.6165 55.8841 16.945L55.8799 33.3235Z" fill="white"/>
<path d="M63.7649 13.3126C63.727 14.6448 63.6884 15.9784 63.6491 17.3135C63.6098 18.6485 63.5642 19.9773 63.5122 21.2997C63.4533 22.7947 63.388 24.2891 63.3164 25.7828C63.2111 28.0128 63.1058 30.2449 62.9647 32.4707C62.9141 33.6235 62.7768 34.7708 62.5541 35.903C62.3836 36.6148 62.1688 37.017 61.9077 37.1181C61.5612 37.2143 61.1934 37.2011 60.8548 37.0802V41.178L61.7539 41.477C62.9268 41.8708 63.8323 41.9697 64.4704 41.7444C65.1084 41.5191 65.6032 40.8305 65.9191 39.685C66.3697 38.0383 66.4708 36.2926 66.5635 34.5975C66.7235 31.6937 66.8035 28.733 66.9151 25.8102C66.9657 24.513 67.0078 23.3275 67.0331 22.2578C67.0583 21.1881 67.0857 20.152 67.111 19.1223C67.1362 18.0926 67.1699 17.0524 67.2078 15.9763C67.2457 14.9677 67.2752 13.8516 67.3005 12.6387H65.8033L67.3068 12.3945L68.4397 12.2133V43.3237L72.3501 44.4292V6.41623L63.9039 8.77044C63.852 10.2852 63.8056 11.7992 63.7649 13.3126Z" fill="white"/>
<path d="M83.5234 4.66003C82.778 3.57346 80.9544 3.27867 79.8089 3.67244C78.2627 4.20722 76.9406 5.2453 76.0543 6.6205C75.0014 8.33037 74.6961 10.5267 74.6856 12.5166V37.575C74.7214 38.9648 74.7424 40.363 75.0372 41.7297C75.2166 42.6778 75.5685 43.585 76.0754 44.4061C76.4902 45.0633 77.0517 45.6154 77.7158 46.0191C78.3862 46.4089 79.1028 46.7131 79.8489 46.9246C80.5125 47.1301 81.2055 47.2247 81.8999 47.2046C82.2063 47.187 82.5057 47.1052 82.7785 46.9644C83.0513 46.8237 83.2915 46.6272 83.4834 46.3876C83.9277 45.8759 84.2794 45.0547 84.5215 43.9428C84.8085 42.4338 84.9327 40.8983 84.8922 39.3628C84.8795 29.7971 84.8662 20.23 84.8521 10.6614C84.7848 8.61884 84.7068 6.38464 83.5234 4.66003ZM81.0997 37.2781C81.115 38.3519 81.0495 39.4254 80.9039 40.4894C80.7733 41.3191 80.4083 41.67 79.8089 41.5423C79.2087 41.4138 78.8381 40.9105 78.6949 40.0535C78.5392 39.0003 78.4688 37.9363 78.4843 36.8717V13.2347C78.4776 12.3253 78.5558 11.4173 78.7181 10.5225C78.8739 9.69911 79.2403 9.2211 79.8131 9.09897C79.933 9.06246 80.0609 9.06046 80.1819 9.09324C80.3029 9.12601 80.4123 9.19223 80.4974 9.28428C80.6893 9.51879 80.8234 9.79501 80.8891 10.0908C80.9889 10.5009 81.0474 10.9199 81.0639 11.3416C81.092 11.8273 81.1053 12.3187 81.1039 12.8156L81.0997 37.2781Z" fill="white"/>
<path d="M92.3233 0.145301C90.7274 0.711949 89.3975 1.84906 88.5898 3.33763C87.5012 5.3781 87.2085 7.86288 87.24 10.1476V39.8387C87.2093 41.4542 87.3335 43.069 87.6107 44.6609C87.7897 45.7481 88.1454 46.7987 88.6635 47.7711C89.0592 48.505 89.6299 49.1299 90.325 49.5904C90.9921 50.012 91.7161 50.3361 92.475 50.5528C93.1499 50.7716 93.8668 50.8293 94.5681 50.7212C95.1787 50.6054 95.6946 50.2285 96.1116 49.5799C96.5285 48.9313 96.8528 47.9522 97.0697 46.6466C97.3207 44.9607 97.4319 43.257 97.4024 41.5528V36.5685L93.6478 36.1115V39.2533C93.6631 40.5042 93.5977 41.7548 93.452 42.9973C93.3215 43.9688 92.9572 44.3899 92.3591 44.2608C91.759 44.1323 91.38 43.5617 91.2241 42.5572C91.053 41.326 90.9749 40.0836 90.9904 38.8406V11.1226C90.9804 10.089 91.0508 9.05614 91.201 8.03344C91.3442 7.12586 91.7148 6.60363 92.3149 6.47517C92.9151 6.34672 93.2857 6.7047 93.4289 7.55332C93.5841 8.59031 93.6545 9.63824 93.6394 10.6867V17.3977L97.394 17.065V8.28614C97.3371 5.96982 97.2382 3.39026 96.0442 1.38348C95.3704 0.227426 93.5362 -0.273744 92.3233 0.145301Z" fill="white"/>
</g>
<defs>
<clipPath id="clip0_6002_126">
<rect width="109" height="50.7718" fill="white"/>
</clipPath>
</defs>
</svg>
