<svg width="19" height="18" viewBox="0 0 19 18" fill="none" xmlns="http://www.w3.org/2000/svg">
<path d="M15.0005 6.4787L13.7576 6.98075C13.5976 7.04564 13.4294 7.07839 13.2581 7.07839C12.8908 7.07839 12.5356 6.92343 12.2842 6.65319C12.0341 6.38484 11.905 6.02011 11.9308 5.65287L12.0247 4.31616L11.1623 3.29064C10.9708 3.0626 10.8751 2.78355 10.8618 2.49756H2.68979C1.20946 2.49756 0 3.70702 0 5.19365V12.6898C0 14.1764 1.20946 15.3796 2.68979 15.3796H4.73705L4.69296 16.6331C4.68036 17.1434 4.95123 17.6095 5.40478 17.8489C5.60005 17.9497 5.80793 18.0001 6.0221 18.0001C6.29927 18.0001 6.57644 17.9056 6.80951 17.7292L9.93395 15.3796H13.5371C15.0175 15.3796 16.2269 14.1764 16.2269 12.6898V6.97445L15.0005 6.4787ZM8.42654 10.9386H5.12005C4.80697 10.9386 4.55311 10.6847 4.55311 10.3717C4.55311 10.0586 4.80697 9.80472 5.12005 9.80472H8.42654C8.73961 9.80472 8.99347 10.0586 8.99347 10.3717C8.99347 10.6847 8.73961 10.9386 8.42654 10.9386ZM11.3576 8.07494H5.12131C4.80823 8.07494 4.55437 7.82108 4.55437 7.508C4.55437 7.19493 4.80823 6.94107 5.12131 6.94107H11.3576C11.6707 6.94107 11.9245 7.19493 11.9245 7.508C11.9245 7.82108 11.6707 8.07494 11.3576 8.07494Z" fill="#C1492E"/>
<path d="M15.328 0.181892L16.2407 1.64269L17.9119 2.05908C18.1891 2.12837 18.2981 2.46349 18.1148 2.6827L17.0074 4.00177L17.1277 5.71958C17.1478 6.00431 16.8625 6.21219 16.5973 6.1051L15.0004 5.45942L13.4036 6.1051C13.139 6.21219 12.853 6.00494 12.8732 5.71958L12.9935 4.00177L11.8861 2.6827C11.7021 2.46412 11.8117 2.12837 12.0889 2.05908L13.7601 1.64269L14.6729 0.181892C14.8234 -0.0606305 15.1768 -0.0606305 15.328 0.181892Z" fill="#C1492E"/>
</svg>
