<svg width="33" height="33" viewBox="0 0 33 33" fill="none" xmlns="http://www.w3.org/2000/svg">
<path d="M16.7144 32.4287C25.3932 32.4287 32.4287 25.3932 32.4287 16.7144C32.4287 8.03556 25.3932 1 16.7144 1C8.03556 1 1 8.03556 1 16.7144C1 25.3932 8.03556 32.4287 16.7144 32.4287Z" fill="#039BE5"/>
<path d="M8.75673 15.8595L23.467 9.8065C24.1498 9.54327 24.7461 9.98425 24.5249 11.086L24.5261 11.0847L22.0214 23.6777C21.8358 24.5706 21.3387 24.7877 20.6432 24.367L16.829 21.367L14.9892 23.2585C14.7858 23.4756 14.6142 23.6587 14.22 23.6587L14.4908 19.5162L21.5599 12.7007C21.8676 12.4117 21.4912 12.2489 21.0857 12.5365L12.3498 18.4063L8.58381 17.1526C7.76629 16.8758 7.74849 16.2801 8.75673 15.8595Z" fill="white"/>
</svg>
